<svg width="28" height="29" viewBox="0 0 28 29" fill="none" xmlns="http://www.w3.org/2000/svg">
<rect x="2" y="2.5" width="24" height="24" rx="12" fill="white"/>
<circle cx="14" cy="14.5" r="12" fill="#8247E5"/>
<path d="M17.6005 12.0907C17.3446 11.9435 17.0157 11.9435 16.7232 12.0907L14.6762 13.3049L13.2872 14.0776L11.2768 15.2919C11.0209 15.4391 10.6919 15.4391 10.3995 15.2919L8.82768 14.3352C8.5718 14.188 8.38903 13.8937 8.38903 13.5625V11.7227C8.38903 11.4284 8.53525 11.134 8.82768 10.95L10.3995 10.0302C10.6554 9.88298 10.9843 9.88298 11.2768 10.0302L12.8486 10.9868C13.1044 11.134 13.2872 11.4284 13.2872 11.7595V12.9738L14.6762 12.1643V10.9132C14.6762 10.6189 14.53 10.3245 14.2376 10.1405L11.3133 8.41117C11.0574 8.26399 10.7285 8.26399 10.436 8.41117L7.43864 10.1773C7.14621 10.3245 7 10.6189 7 10.9132V14.372C7 14.6664 7.14621 14.9607 7.43864 15.1447L10.3995 16.8741C10.6554 17.0213 10.9843 17.0213 11.2768 16.8741L13.2872 15.6966L14.6762 14.8871L16.6867 13.7097C16.9426 13.5625 17.2715 13.5625 17.564 13.7097L19.1358 14.6296C19.3916 14.7767 19.5744 15.0711 19.5744 15.4023V17.242C19.5744 17.5364 19.4282 17.8308 19.1358 18.0147L17.6005 18.9346C17.3446 19.0818 17.0157 19.0818 16.7232 18.9346L15.1514 18.0147C14.8956 17.8675 14.7128 17.5732 14.7128 17.242V16.0646L13.3238 16.8741V18.0883C13.3238 18.3827 13.47 18.677 13.7624 18.861L16.7232 20.5904C16.9791 20.7376 17.3081 20.7376 17.6005 20.5904L20.5614 18.861C20.8172 18.7138 21 18.4195 21 18.0883V14.5928C21 14.2984 20.8538 14.004 20.5614 13.8201L17.6005 12.0907Z" fill="#F5F8FA"/>
</svg>
