<svg width="26" height="26" viewBox="0 0 26 26" fill="none" xmlns="http://www.w3.org/2000/svg">
<g clip-path="url(#clip0_2787_21466)">
<path d="M25.8002 0.199219H0.200195V25.7992H25.8002V0.199219Z" fill="#1969FF"/>
<mask id="mask0_2787_21466" style="mask-type:luminance" maskUnits="userSpaceOnUse" x="3" y="3" width="20" height="20">
<path d="M12.1279 4.15923C12.4387 4.04408 12.778 3.98438 13.1216 3.98438C13.4653 3.98438 13.8046 4.04408 14.1154 4.15923L19.876 6.53821C20.0212 6.58923 20.1482 6.66748 20.2459 6.76609C20.3435 6.86471 20.4089 6.98067 20.4361 7.10377H20.4416V19.0621C20.4281 19.1965 20.3683 19.3254 20.2686 19.4352C20.169 19.5449 20.0333 19.6313 19.876 19.6851L14.1166 22.0634C13.8058 22.1786 13.4664 22.2383 13.1228 22.2383C12.7792 22.2383 12.4398 22.1786 12.129 22.0634L6.36959 19.6851C6.21411 19.6307 6.08042 19.544 5.9829 19.4343C5.8854 19.3247 5.82773 19.1962 5.81609 19.0628C5.81609 19.0423 5.81609 19.0251 5.81609 19.0101V7.10377C5.83959 6.98031 5.90273 6.86357 5.99958 6.76462C6.09643 6.66567 6.22378 6.58774 6.36959 6.53821L12.1279 4.15923ZM19.5348 13.7754L14.1166 16.0135C13.8058 16.1286 13.4664 16.1883 13.1228 16.1883C12.7792 16.1883 12.4398 16.1286 12.129 16.0135L6.72126 13.7804V19.0385L12.129 21.26C12.3969 21.3874 12.6914 21.4765 12.9989 21.5231L13.123 21.5292C13.4606 21.503 13.7866 21.418 14.0773 21.2804L19.5351 19.0187L19.5348 13.7754ZM4.87943 18.8022C4.85246 19.1338 4.92168 19.4659 5.08186 19.7735C5.21932 19.9703 5.42223 20.134 5.66891 20.2473L5.68656 20.2566C5.75393 20.292 5.82825 20.3293 5.9179 20.3732L6.02432 20.4243L6.35138 20.5786L5.88379 21.1848L5.51768 21.0121L5.45608 20.9826C5.35023 20.9314 5.26233 20.8876 5.18049 20.8444C4.30569 20.3832 3.9795 19.8801 3.97284 18.834V18.8022H4.87943ZM12.6684 10.5705C12.6286 10.5811 12.5899 10.594 12.5527 10.6093L6.79296 12.9883L6.77561 12.9958L6.7707 12.9981L6.77968 13.0021L6.79269 13.0078L12.5521 15.3868C12.5893 15.4021 12.628 15.4151 12.6678 15.4257L12.6684 10.5705ZM13.5773 10.5705V15.4252C13.617 15.4146 13.6557 15.4016 13.6929 15.3864L19.4523 13.0074L19.4697 12.9999L19.4746 12.9976L19.4656 12.9935L19.4526 12.9878L13.6932 10.6091C13.6559 10.5939 13.6171 10.581 13.5773 10.5705ZM19.5345 7.95242L14.3688 10.0862L19.5351 12.2201L19.5345 7.95242ZM6.72182 7.95743V12.2151L11.876 10.0862L6.72182 7.95743ZM13.6932 4.78612C13.5131 4.72493 13.319 4.69336 13.1228 4.69336C12.9266 4.69336 12.7325 4.72493 12.5524 4.78612L6.79296 7.16534L6.77561 7.17284L6.7707 7.17511L6.77968 7.17921L6.79269 7.18489L12.5521 9.56386C12.7322 9.62506 12.9263 9.65664 13.1225 9.65664C13.3187 9.65664 13.5129 9.62506 13.6929 9.56386L19.4523 7.18489L19.4697 7.17739L19.4746 7.17511L19.4656 7.17102L19.4526 7.16534L13.6932 4.78612ZM20.3861 5.04698L20.7522 5.2199L20.8138 5.24942C20.9197 5.30055 21.0076 5.3444 21.0894 5.38757C21.9642 5.84883 22.2907 6.35189 22.2971 7.39801V7.42982H21.3905C21.4174 7.09818 21.3482 6.76603 21.188 6.45847C21.0507 6.26135 20.8478 6.09727 20.601 5.9838L20.5833 5.97447C20.516 5.93904 20.4416 5.90177 20.352 5.85792L20.2456 5.80681L19.9185 5.65252L20.3861 5.04698Z" fill="white" stroke="white" stroke-width="0.556522"/>
</mask>
<g mask="url(#mask0_2787_21466)">
<path d="M12.1279 4.15923C12.4387 4.04408 12.778 3.98438 13.1216 3.98438C13.4653 3.98438 13.8046 4.04408 14.1154 4.15923L19.876 6.53821C20.0212 6.58923 20.1482 6.66748 20.2459 6.76609C20.3435 6.86471 20.4089 6.98067 20.4361 7.10377H20.4416V19.0621C20.4281 19.1965 20.3683 19.3254 20.2686 19.4352C20.169 19.5449 20.0333 19.6313 19.876 19.6851L14.1166 22.0634C13.8058 22.1786 13.4664 22.2383 13.1228 22.2383C12.7792 22.2383 12.4398 22.1786 12.129 22.0634L6.36959 19.6851C6.21411 19.6307 6.08042 19.544 5.9829 19.4343C5.8854 19.3247 5.82773 19.1962 5.81609 19.0628C5.81609 19.0423 5.81609 19.0251 5.81609 19.0101V7.10377C5.83959 6.98031 5.90273 6.86357 5.99958 6.76462C6.09643 6.66567 6.22378 6.58774 6.36959 6.53821L12.1279 4.15923ZM19.5348 13.7754L14.1166 16.0135C13.8058 16.1286 13.4664 16.1883 13.1228 16.1883C12.7792 16.1883 12.4398 16.1286 12.129 16.0135L6.72126 13.7804V19.0385L12.129 21.26C12.3969 21.3874 12.6914 21.4765 12.9989 21.5231L13.123 21.5292C13.4606 21.503 13.7866 21.418 14.0773 21.2804L19.5351 19.0187L19.5348 13.7754ZM4.87943 18.8022C4.85246 19.1338 4.92168 19.4659 5.08186 19.7735C5.21932 19.9703 5.42223 20.134 5.66891 20.2473L5.68656 20.2566C5.75393 20.292 5.82825 20.3293 5.9179 20.3732L6.02432 20.4243L6.35138 20.5786L5.88379 21.1848L5.51768 21.0121L5.45608 20.9826C5.35023 20.9314 5.26233 20.8876 5.18049 20.8444C4.30569 20.3832 3.9795 19.8801 3.97284 18.834V18.8022H4.87943ZM12.6684 10.5705C12.6286 10.5811 12.5899 10.594 12.5527 10.6093L6.79296 12.9883L6.77561 12.9958L6.7707 12.9981L6.77968 13.0021L6.79269 13.0078L12.5521 15.3868C12.5893 15.4021 12.628 15.4151 12.6678 15.4257L12.6684 10.5705ZM13.5773 10.5705V15.4252C13.617 15.4146 13.6557 15.4016 13.6929 15.3864L19.4523 13.0074L19.4697 12.9999L19.4746 12.9976L19.4656 12.9935L19.4526 12.9878L13.6932 10.6091C13.6559 10.5939 13.6171 10.581 13.5773 10.5705ZM19.5345 7.95242L14.3688 10.0862L19.5351 12.2201L19.5345 7.95242ZM6.72182 7.95743V12.2151L11.876 10.0862L6.72182 7.95743ZM13.6932 4.78612C13.5131 4.72493 13.319 4.69336 13.1228 4.69336C12.9266 4.69336 12.7325 4.72493 12.5524 4.78612L6.79296 7.16534L6.77561 7.17284L6.7707 7.17511L6.77968 7.17921L6.79269 7.18489L12.5521 9.56386C12.7322 9.62506 12.9263 9.65664 13.1225 9.65664C13.3187 9.65664 13.5129 9.62506 13.6929 9.56386L19.4523 7.18489L19.4697 7.17739L19.4746 7.17511L19.4656 7.17102L19.4526 7.16534L13.6932 4.78612ZM20.3861 5.04698L20.7522 5.2199L20.8138 5.24942C20.9197 5.30055 21.0076 5.3444 21.0894 5.38757C21.9642 5.84883 22.2907 6.35189 22.2971 7.39801V7.42982H21.3905C21.4174 7.09818 21.3482 6.76603 21.188 6.45847C21.0507 6.26135 20.8478 6.09727 20.601 5.9838L20.5833 5.97447C20.516 5.93904 20.4416 5.90177 20.352 5.85792L20.2456 5.80681L19.9185 5.65252L20.3861 5.04698Z" fill="white" stroke="white" stroke-width="0.556522"/>
</g>
</g>
<defs>
<clipPath id="clip0_2787_21466">
<rect width="25.6" height="25.6" fill="white" transform="translate(0.200195 0.199219)"/>
</clipPath>
</defs>
</svg>
