<svg width="28" height="28" viewBox="0 0 28 28" fill="none" xmlns="http://www.w3.org/2000/svg">
<g clip-path="url(#clip0_1260_17892)">
<mask id="mask0_1260_17892" style="mask-type:luminance" maskUnits="userSpaceOnUse" x="2" y="2" width="24" height="24">
<path d="M25.9094 2H2V25.9094H25.9094V2Z" fill="white"/>
</mask>
<g mask="url(#mask0_1260_17892)">
<path d="M13.9547 2C16.3547 4.4 18.8 6.84528 21.2453 9.29057C20.3849 10.1509 19.4792 11.0113 18.5283 11.917C17.034 10.4226 15.5396 8.88302 13.9547 7.29811C12.3698 8.9283 10.8302 10.4679 9.33585 12.0075C8.33962 11.0566 7.47924 10.1509 6.61887 9.33585C9.06415 6.89057 11.5094 4.44528 13.9547 2Z" fill="#F2BA32"/>
<path d="M21.2453 18.6187C18.8 21.064 16.3547 23.5093 13.9547 25.9093C11.5094 23.5093 9.01886 21.0187 6.57358 18.5734C7.43396 17.713 8.29433 16.8527 9.19999 15.9923C10.6943 17.4866 12.234 19.0263 13.7736 20.5659C15.4038 18.9357 16.9434 17.3961 18.483 15.8564C19.4792 16.8527 20.3849 17.7583 21.2453 18.6187Z" fill="#F2BA32"/>
<path d="M13.8642 16.6265C13.0038 15.7661 12.0981 14.8605 11.283 14.0454C12.1887 13.1397 13.0943 12.234 13.9547 11.4189C14.7698 12.234 15.6755 13.1397 16.5359 14.0001C15.6755 14.8152 14.7698 15.7208 13.8642 16.6265Z" fill="#F2BA32"/>
<path d="M23.3283 11.3735C24.1434 12.1886 25.049 13.0943 25.9094 13.9547C25.049 14.815 24.1434 15.7207 23.283 16.5811C22.4679 15.766 21.5623 14.8603 20.7019 13.9999C21.5623 13.1396 22.4226 12.2792 23.3283 11.3735Z" fill="#F2BA32"/>
<path d="M7.16226 13.9997C6.34717 14.8148 5.44151 15.7205 4.58113 16.5808C3.72075 15.7205 2.81509 14.8601 2 14.045C2.86038 13.1846 3.76604 12.279 4.58113 11.4639C5.35094 12.2337 6.2566 13.0941 7.16226 13.9997Z" fill="#F2BA32"/>
</g>
</g>
<defs>
<clipPath id="clip0_1260_17892">
<rect width="24" height="24" fill="white" transform="translate(2 2)"/>
</clipPath>
</defs>
</svg>
