<svg width="32" height="32" viewBox="0 0 32 32" fill="none" xmlns="http://www.w3.org/2000/svg">
<g clip-path="url(#clip0_2787_25925)">
<mask id="mask0_2787_25925" style="mask-type:luminance" maskUnits="userSpaceOnUse" x="3" y="3" width="26" height="26">
<path d="M28.8002 3.19922H3.2002V28.7992H28.8002V3.19922Z" fill="white"/>
</mask>
<g mask="url(#mask0_2787_25925)">
<path d="M18.5658 3.23443C18.0838 5.62893 17.6019 7.98822 17.1199 10.3827C16.9782 11.0165 16.8364 11.6504 16.7514 12.3194C16.6946 12.7068 16.5529 12.8124 16.2411 12.8124C14.7952 12.7772 13.3777 12.8124 11.9319 12.7772C11.5917 12.7772 11.4499 12.8828 11.3648 13.3054C10.3726 18.3057 9.38037 23.2708 8.38812 28.2358C8.30307 28.6231 8.21802 28.7288 7.90617 28.7288C6.46032 28.6935 5.01448 28.6935 3.56863 28.7288C3.22843 28.7288 3.14338 28.6935 3.22843 28.2006C4.90107 20.0663 6.54537 11.8969 8.18967 3.6922C8.24637 3.37528 8.27472 3.19922 8.58657 3.19922C11.8751 3.19922 15.1354 3.19922 18.424 3.19922C18.4524 3.19922 18.509 3.23443 18.5658 3.23443Z" fill="#FE0302"/>
<path d="M18.5943 28.7641C17.0066 28.7641 15.4474 28.7641 13.8598 28.7641C13.5196 28.7641 13.4062 28.6584 13.5196 28.2359C14.1149 25.3484 14.6819 22.4961 15.2489 19.6087C15.334 19.2213 15.4757 19.1508 15.7592 19.1508C17.1767 19.1508 18.5943 19.1508 20.0117 19.1508C20.3519 19.1508 20.522 19.0804 20.607 18.5874C21.5993 13.6224 22.5916 8.65732 23.5838 3.69226C23.6689 3.2697 23.8106 3.16406 24.1508 3.16406C25.5683 3.23449 27.0141 3.23449 28.4316 3.19928C28.8002 3.19928 28.8569 3.30492 28.7719 3.72747C27.1275 11.8969 25.4833 20.1016 23.839 28.2711C23.7539 28.6584 23.6405 28.7993 23.3003 28.7993C21.7411 28.7641 20.1535 28.7641 18.5943 28.7641Z" fill="#135BFE"/>
</g>
</g>
<defs>
<clipPath id="clip0_2787_25925">
<rect width="25.6" height="25.6" fill="white" transform="translate(3.2002 3.19922)"/>
</clipPath>
</defs>
</svg>
