<svg width="26" height="26" viewBox="0 0 26 26" fill="none" xmlns="http://www.w3.org/2000/svg">
<g clip-path="url(#clip0_2787_25881)">
<mask id="mask0_2787_25881" style="mask-type:luminance" maskUnits="userSpaceOnUse" x="0" y="0" width="26" height="26">
<path d="M25.2313 0.199219H0.200195V25.1592H25.2313V0.199219Z" fill="white"/>
</mask>
<g mask="url(#mask0_2787_25881)">
<path d="M9.80017 0.269886C13.8535 0.269886 17.8357 0.198775 21.8179 0.269886C23.6668 0.340997 25.0891 2.04767 25.1602 3.96767C25.1602 4.32322 25.1602 4.60767 25.1602 4.96322C25.1602 8.44767 25.1602 11.9321 25.1602 15.5588C20.0402 15.5588 14.9913 15.5588 9.80017 15.5588C9.80017 10.5099 9.80017 5.461 9.80017 0.269886Z" fill="#1E2028"/>
<path d="M0.271362 9.72852C2.26248 9.72852 4.18248 9.72852 6.10248 9.72852C6.10248 11.7196 6.10248 13.6396 6.10248 15.6307C4.18248 15.6307 2.26248 15.6307 0.271362 15.6307C0.271362 13.7107 0.271362 11.7907 0.271362 9.72852Z" fill="#23262E"/>
<path d="M15.6313 19.1855C15.6313 21.1767 15.6313 23.0967 15.6313 25.0878C13.6402 25.0878 11.7202 25.0878 9.80017 25.0878C9.80017 23.0967 9.80017 21.1767 9.80017 19.1855C11.7202 19.1855 13.6402 19.1855 15.6313 19.1855Z" fill="#23262E"/>
<path d="M0.342343 19.1863C0.626787 19.1863 0.911231 19.1152 1.12457 19.1152C2.76012 19.1152 4.39568 19.1152 6.17346 19.1152C6.17346 21.1063 6.17346 23.0263 6.17346 24.9463C2.33346 25.8708 -0.368768 23.5952 0.342343 19.1863Z" fill="#23262E"/>
<path d="M6.17351 0.341859C6.17351 2.26186 6.17351 4.18186 6.17351 6.10186C4.1824 6.10186 2.33352 6.10186 0.413517 6.10186C-0.368705 2.90186 1.05352 -0.511474 6.17351 0.341859Z" fill="#23262E"/>
<path d="M19.2579 25.0889C19.2579 23.0978 19.2579 21.2489 19.2579 19.2578C21.1779 19.2578 23.0979 19.2578 25.0179 19.2578C25.8002 22.4578 24.3779 25.7289 19.2579 25.0889Z" fill="#23262E"/>
</g>
</g>
<defs>
<clipPath id="clip0_2787_25881">
<rect width="25.6" height="25.6" fill="white" transform="translate(0.200195 0.199219)"/>
</clipPath>
</defs>
</svg>
